# xmcd CD database file
#
# Track frame offsets:
#	150
#	14423
#	30162
#	50890
#	63638
#	77177
#	90558
#	104539
#
# Disc length: 1856 seconds
#
# Revision: 1
# Processed by: cddbd v1.5.2PL0 Copyright (c) Steve Scherf et al.
# Submitted via: CDex 1.70beta2
#
DISCID=63073e08
DTITLE=SilverHawk - Live at Casino Edmonton
DYEAR=1900
DGENRE=Country
TTITLE0=Adalida
TTITLE1=Rock This Town
TTITLE2=You're Cheating Heart/Walk On By
TTITLE3=Stand Up
TTITLE4=La Bamba
TTITLE5=Hey Baby
TTITLE6=That's Alright Mama
TTITLE7=Maybellene
EXTD=
EXTT0=
EXTT1=
EXTT2=
EXTT3=
EXTT4=
EXTT5=
EXTT6=
EXTT7=
PLAYORDER=
